<svg width="14" height="26" viewBox="0 0 14 26" fill="none" xmlns="http://www.w3.org/2000/svg">
<path d="M13.1167 25.2917C13.25 25.2917 13.3833 25.226 13.5167 25.1603C13.7167 24.9632 13.7167 24.6347 13.5167 24.3719L1.84999 12.8744L13.5167 1.31122C13.7167 1.11412 13.7167 0.785624 13.5167 0.522825C13.3167 0.325725 12.9833 0.325725 12.7167 0.522825L0.24999 12.8744L12.7167 25.0946C12.85 25.226 12.9833 25.2917 13.1167 25.2917Z" fill="#DC0032"/>
<path d="M13.1167 25.2917C13.25 25.2917 13.3833 25.226 13.5167 25.1603C13.7167 24.9632 13.7167 24.6347 13.5167 24.3719L1.84999 12.8744L13.5167 1.31122C13.7167 1.11412 13.7167 0.785624 13.5167 0.522825C13.3167 0.325725 12.9833 0.325725 12.7167 0.522825L0.24999 12.8744L12.7167 25.0946C12.85 25.226 12.9833 25.2917 13.1167 25.2917Z" fill="#DC0032"/>
</svg>
