<svg width="14" height="26" viewBox="0 0 14 26" fill="none" xmlns="http://www.w3.org/2000/svg">
<path d="M0.925 25.2917C0.791667 25.2917 0.658333 25.226 0.525 25.1603C0.325 24.9632 0.325 24.6347 0.525 24.3719L12.1917 12.8744L0.525 1.31122C0.325 1.11412 0.325 0.785624 0.525 0.522825C0.725 0.325725 1.05833 0.325725 1.325 0.522825L13.7917 12.8744L1.325 25.0946C1.19167 25.226 1.05833 25.2917 0.925 25.2917Z" fill="#DC0032"/>
<path d="M0.925 25.2917C0.791667 25.2917 0.658333 25.226 0.525 25.1603C0.325 24.9632 0.325 24.6347 0.525 24.3719L12.1917 12.8744L0.525 1.31122C0.325 1.11412 0.325 0.785624 0.525 0.522825C0.725 0.325725 1.05833 0.325725 1.325 0.522825L13.7917 12.8744L1.325 25.0946C1.19167 25.226 1.05833 25.2917 0.925 25.2917Z" fill="#DC0032"/>
</svg>
