<svg width="23" height="21" viewBox="0 0 23 21" fill="none" xmlns="http://www.w3.org/2000/svg">
<path d="M6.28745 7.10625e-06C4.66773 7.10625e-06 3.04801 0.64287 1.81114 1.92861C-0.603713 4.50009 -0.603713 8.62031 1.81114 11.1918L10.6165 20.6303C11.0583 21.0978 11.7945 21.1271 12.2951 20.6887C12.3246 20.6595 12.3246 20.6595 12.354 20.6303C15.299 17.5036 18.2439 14.3477 21.1889 11.1918C23.6037 8.62031 23.6037 4.50009 21.1889 1.92861C18.774 -0.64287 14.6805 -0.64287 12.2657 1.92861L11.5 2.7468L10.7343 1.92861C9.52689 0.64287 7.90717 7.10625e-06 6.28745 7.10625e-06ZM6.28745 2.25004C7.25928 2.25004 8.23111 2.65915 9.02625 3.50657L10.6754 5.25985C11.1172 5.72739 11.8534 5.7566 12.354 5.31828C12.3835 5.28906 12.3835 5.28907 12.4129 5.25985L14.0326 3.53579C15.5935 1.87017 17.92 1.87017 19.4808 3.53579C21.0416 5.2014 21.0416 7.94821 19.4808 9.61382C16.8303 12.4483 14.1799 15.2828 11.5294 18.1173L3.5781 9.61382C2.01729 7.94821 2.01729 5.2014 3.5781 3.53579C4.34379 2.68837 5.31562 2.25004 6.28745 2.25004Z" fill="#414042"/>
</svg>
