<svg width="20" height="20" viewBox="0 0 20 20" fill="none" xmlns="http://www.w3.org/2000/svg">
<path d="M4.91151 18.1878C4.81105 18.1878 4.71897 18.1544 4.64363 18.079C4.49295 17.9283 4.49295 17.6855 4.64363 17.5348L15.7437 6.42506L13.5756 4.25668L3.55539 14.2781C3.40471 14.4288 3.16195 14.4288 3.01128 14.2781C2.8606 14.1274 2.8606 13.8846 3.01128 13.7339L13.5839 3.16831L16.8319 6.41668L5.17938 18.0706C5.10404 18.146 5.00359 18.1878 4.91151 18.1878Z" fill="white"/>
<path d="M4.93662 16.0446C4.83617 16.0446 4.74408 16.0111 4.66875 15.9358L3.01965 14.2864C2.86897 14.1358 2.86897 13.893 3.01965 13.7423C3.17033 13.5916 3.41309 13.5916 3.56376 13.7423L5.21286 15.3916C5.36354 15.5423 5.36354 15.7851 5.21286 15.9358C5.12915 16.0027 5.0287 16.0446 4.93662 16.0446Z" fill="white"/>
<path d="M1.38729 18.9999C1.36218 18.9999 1.32869 18.9999 1.30358 18.9916C1.0943 18.9413 0.968736 18.7404 1.01896 18.5311L1.83096 15.0064C1.88118 14.7971 2.08209 14.6716 2.29136 14.7218C2.50064 14.772 2.62621 14.973 2.57598 15.1823L1.76399 18.7069C1.72213 18.8827 1.56308 18.9999 1.38729 18.9999Z" fill="white"/>
<path d="M1.38729 18.9999C1.28684 18.9999 1.19476 18.9664 1.11942 18.8911C0.968737 18.7404 0.968737 18.4976 1.11942 18.3469L2.19928 17.2669C2.34996 17.1162 2.59272 17.1162 2.7434 17.2669C2.89408 17.4176 2.89408 17.6604 2.7434 17.8111L1.66353 18.8911C1.57982 18.9664 1.48774 18.9999 1.38729 18.9999Z" fill="white"/>
<path d="M1.38729 18.9999C1.2115 18.9999 1.05245 18.8827 1.01059 18.7069C0.960366 18.4976 1.0943 18.2967 1.29521 18.2464L4.81942 17.4344C5.02033 17.3841 5.22961 17.5181 5.27983 17.719C5.33006 17.9283 5.19612 18.1292 4.99522 18.1795L1.471 18.9916C1.44589 18.9999 1.4124 18.9999 1.38729 18.9999Z" fill="white"/>
<path d="M17.376 5.7218C17.2756 5.7218 17.1835 5.68831 17.1081 5.61296C16.9575 5.46226 16.9575 5.21947 17.1081 5.06878L17.9201 4.25668L15.752 2.08831L14.94 2.9004C14.7894 3.0511 14.5466 3.0511 14.3959 2.9004C14.2452 2.74971 14.2452 2.50692 14.3959 2.35622L15.752 0.999939L19 4.24831L17.6439 5.60459C17.5685 5.67994 17.4681 5.7218 17.376 5.7218Z" fill="white"/>
<path d="M1.38729 18.9999C1.36218 18.9999 1.32869 18.9999 1.30358 18.9916C1.0943 18.9413 0.968736 18.7404 1.01896 18.5311L1.83096 15.0064C1.88118 14.7971 2.08209 14.6716 2.29136 14.7218C2.50064 14.772 2.62621 14.973 2.57598 15.1823L1.76399 18.7069C1.72213 18.8827 1.56308 18.9999 1.38729 18.9999ZM1.38729 18.9999C1.28684 18.9999 1.19476 18.9664 1.11942 18.8911C0.968737 18.7404 0.968737 18.4976 1.11942 18.3469L2.19928 17.2669C2.34996 17.1162 2.59272 17.1162 2.7434 17.2669C2.89408 17.4176 2.89408 17.6604 2.7434 17.8111L1.66353 18.8911C1.57982 18.9664 1.48774 18.9999 1.38729 18.9999ZM1.38729 18.9999C1.2115 18.9999 1.05245 18.8827 1.01059 18.7069C0.960366 18.4976 1.0943 18.2967 1.29521 18.2464L4.81942 17.4344C5.02033 17.3841 5.22961 17.5181 5.27983 17.719C5.33006 17.9283 5.19612 18.1292 4.99522 18.1795L1.471 18.9916C1.44589 18.9999 1.4124 18.9999 1.38729 18.9999ZM4.91151 18.1878C4.81105 18.1878 4.71897 18.1544 4.64363 18.079C4.49295 17.9283 4.49295 17.6855 4.64363 17.5348L15.7437 6.42505L13.5756 4.25668L3.55539 14.2781C3.40471 14.4288 3.16195 14.4288 3.01128 14.2781C2.8606 14.1274 2.8606 13.8846 3.01128 13.7339L13.5839 3.16831L16.8319 6.41668L5.17938 18.0706C5.10404 18.146 5.00359 18.1878 4.91151 18.1878ZM4.93662 16.0446C4.83617 16.0446 4.74408 16.0111 4.66875 15.9358L3.01965 14.2864C2.86897 14.1358 2.86897 13.893 3.01965 13.7423C3.17033 13.5916 3.41309 13.5916 3.56376 13.7423L5.21286 15.3916C5.36354 15.5423 5.36354 15.7851 5.21286 15.9358C5.12915 16.0027 5.0287 16.0446 4.93662 16.0446ZM17.376 5.7218C17.2756 5.7218 17.1835 5.68831 17.1081 5.61296C16.9575 5.46226 16.9575 5.21947 17.1081 5.06878L17.9201 4.25668L15.752 2.08831L14.94 2.9004C14.7894 3.0511 14.5466 3.0511 14.3959 2.9004C14.2452 2.74971 14.2452 2.50692 14.3959 2.35622L15.752 0.999939L19 4.24831L17.6439 5.60459C17.5685 5.67994 17.4681 5.7218 17.376 5.7218Z" stroke="white"/>
</svg>
