<svg width="22" height="22" viewBox="0 0 22 22" fill="none" xmlns="http://www.w3.org/2000/svg">
<path d="M20.569 11.4416H1.43103C1.18809 11.4416 1 11.2462 1 11.0039C1 10.7616 1.19592 10.5662 1.43103 10.5662H20.569C20.8119 10.5662 21 10.7616 21 11.0039C21 11.2462 20.8041 11.4416 20.569 11.4416Z" fill="#DC0032"/>
<path d="M11 21C10.7571 21 10.569 20.8046 10.569 20.5623V1.43767C10.569 1.19539 10.7649 1 11 1C11.2351 1 11.431 1.19539 11.431 1.43767V20.5623C11.431 20.8046 11.2351 21 11 21Z" fill="#DC0032"/>
<path d="M20.569 11.4416H1.43103C1.18809 11.4416 1 11.2462 1 11.0039C1 10.7616 1.19592 10.5662 1.43103 10.5662H20.569C20.8119 10.5662 21 10.7616 21 11.0039C21 11.2462 20.8041 11.4416 20.569 11.4416Z" stroke="#DC0032"/>
<path d="M11 21C10.7571 21 10.569 20.8046 10.569 20.5623V1.43767C10.569 1.19539 10.7649 1 11 1C11.2351 1 11.431 1.19539 11.431 1.43767V20.5623C11.431 20.8046 11.2351 21 11 21Z" stroke="#DC0032"/>
</svg>
