<svg width="32" height="31" viewBox="0 0 32 31" fill="none" xmlns="http://www.w3.org/2000/svg">
<path d="M30.8639 18.0878C30.8389 18.0343 30.8539 18.1412 30.8639 18.0878C31.0291 17.213 31.1142 16.3189 31.1142 15.4295C31.1142 13.4468 30.7138 11.5272 29.9281 9.71939C29.1673 7.9699 28.0763 6.40508 26.69 5.05408C25.3037 3.70795 23.6872 2.64853 21.8905 1.90986C20.0288 1.14689 18.0519 0.758113 16.01 0.758113C15.0491 0.758113 14.0882 0.845587 13.1473 1.02054H13.1423C11.8561 0.354758 10.4098 0 8.94338 0C6.55615 0 4.30904 0.903903 2.62246 2.54648C0.930873 4.1842 0 6.3662 0 8.68428C0 10.1616 0.390366 11.6147 1.12606 12.8976C0.975915 13.7286 0.900845 14.5791 0.900845 15.4247C0.900845 17.4074 1.30122 19.327 2.08696 21.1348C2.84767 22.8843 3.93869 24.4491 5.32499 25.8001C6.71129 27.1463 8.32781 28.2057 10.1295 28.9443C11.9912 29.7122 13.9731 30.101 16.01 30.101C16.8958 30.101 17.7867 30.0232 18.6575 29.8725C19.9937 30.6064 21.5102 31 23.0566 31C25.4439 31 27.691 30.0961 29.3825 28.4584C31.0741 26.8207 32 24.6387 32 22.3157C32 20.8287 31.6046 19.3756 30.8639 18.0878ZM16.0701 24.4102C10.7 24.4102 8.30278 21.8492 8.30278 19.9248C8.30278 18.9382 9.05349 18.2482 10.0845 18.2482C12.3816 18.2482 11.786 21.4507 16.0751 21.4507C18.2671 21.4507 19.4833 20.2941 19.4833 19.1083C19.4833 18.3939 19.1229 17.6067 17.6766 17.2616L12.9021 16.105C9.05849 15.1671 8.35783 13.1503 8.35783 11.2551C8.35783 7.31384 12.1764 5.83649 15.7648 5.83649C19.0679 5.83649 22.9665 7.61028 22.9665 9.9721C22.9665 10.9829 22.0657 11.5758 21.0297 11.5758C19.0679 11.5758 19.4282 8.94184 15.4795 8.94184C13.5177 8.94184 12.4367 9.80201 12.4367 11.0364C12.4367 12.2659 13.9831 12.6595 15.3294 12.9559L18.8627 13.7189C22.7363 14.5548 23.7172 16.7514 23.7172 18.8167C23.7072 22.0193 21.1749 24.4102 16.0701 24.4102Z" fill="white"/>
</svg>
