<svg width="66" height="148" viewBox="0 0 66 148" fill="none" xmlns="http://www.w3.org/2000/svg">
<path d="M1.71896 144.551C2.65839 144.551 3.43792 145.31 3.43792 146.27C3.43792 147.21 2.67838 147.989 1.71896 147.989C0.779528 147.989 0 147.23 0 146.27C0 145.31 0.75954 144.551 1.71896 144.551Z" fill="white"/>
<path d="M1.71896 133.434C2.65839 133.434 3.43792 134.194 3.43792 135.154C3.43792 136.094 2.67838 136.873 1.71896 136.873C0.779528 136.873 0 136.114 0 135.154C0 134.194 0.75954 133.434 1.71896 133.434Z" fill="white"/>
<path d="M1.71896 122.318C2.65839 122.318 3.43792 123.078 3.43792 124.038C3.43792 124.977 2.67838 125.757 1.71896 125.757C0.779528 125.757 0 124.997 0 124.038C0 123.078 0.75954 122.318 1.71896 122.318Z" fill="white"/>
<path d="M1.71896 111.202C2.65839 111.202 3.43792 111.962 3.43792 112.921C3.43792 113.881 2.67838 114.641 1.71896 114.641C0.779528 114.641 0 113.881 0 112.921C0 111.962 0.75954 111.202 1.71896 111.202Z" fill="white"/>
<path d="M1.71896 100.066C2.65839 100.066 3.43792 100.826 3.43792 101.785C3.43792 102.725 2.67838 103.505 1.71896 103.505C0.779528 103.505 0 102.745 0 101.785C0 100.846 0.75954 100.066 1.71896 100.066Z" fill="white"/>
<path d="M1.71896 88.9496C2.65839 88.9496 3.43792 89.7094 3.43792 90.669C3.43792 91.6287 2.67838 92.3885 1.71896 92.3885C0.779528 92.3885 0 91.6287 0 90.669C0 89.7094 0.75954 88.9496 1.71896 88.9496Z" fill="white"/>
<path d="M1.71896 77.8334C2.65839 77.8334 3.43792 78.5932 3.43792 79.5528C3.43792 80.4925 2.67838 81.2722 1.71896 81.2722C0.779528 81.2722 0 80.5125 0 79.5528C0 78.5932 0.75954 77.8334 1.71896 77.8334Z" fill="white"/>
<path d="M1.71896 66.7172C2.65839 66.7172 3.43792 67.477 3.43792 68.4366C3.43792 69.3763 2.67838 70.156 1.71896 70.156C0.779528 70.156 0 69.3963 0 68.4366C0 67.477 0.75954 66.7172 1.71896 66.7172Z" fill="white"/>
<path d="M1.71896 55.601C2.65839 55.601 3.43792 56.3608 3.43792 57.3204C3.43792 58.2601 2.67838 59.0398 1.71896 59.0398C0.779528 59.0398 0 58.2801 0 57.3204C0 56.3608 0.75954 55.601 1.71896 55.601Z" fill="white"/>
<path d="M1.71896 44.4848C2.65839 44.4848 3.43792 45.2446 3.43792 46.2042C3.43792 47.1439 2.67838 47.9236 1.71896 47.9236C0.779528 47.9236 0 47.1639 0 46.2042C0 45.2446 0.75954 44.4848 1.71896 44.4848Z" fill="white"/>
<path d="M1.71896 33.3486C2.65839 33.3486 3.43792 34.1084 3.43792 35.068C3.43792 36.0077 2.67838 36.7874 1.71896 36.7874C0.779528 36.7874 0 36.0277 0 35.068C0 34.1283 0.75954 33.3486 1.71896 33.3486Z" fill="white"/>
<path d="M1.71896 22.2324C2.65839 22.2324 3.43792 22.9921 3.43792 23.9518C3.43792 24.8915 2.67838 25.6712 1.71896 25.6712C0.779528 25.6712 0 24.9115 0 23.9518C0 23.0121 0.75954 22.2324 1.71896 22.2324Z" fill="white"/>
<path d="M1.71896 11.1162C2.65839 11.1162 3.43792 11.8759 3.43792 12.8356C3.43792 13.7953 2.67838 14.555 1.71896 14.555C0.779528 14.555 0 13.7953 0 12.8356C0 11.8759 0.75954 11.1162 1.71896 11.1162Z" fill="white"/>
<path d="M1.71896 0C2.65839 0 3.43792 0.759741 3.43792 1.71941C3.43792 2.65909 2.67838 3.43883 1.71896 3.43883C0.75954 3.41883 0 2.65909 0 1.71941C0 0.759741 0.75954 0 1.71896 0Z" fill="white"/>
<path d="M10.6535 144.551C11.593 144.551 12.3725 145.31 12.3725 146.27C12.3725 147.21 11.613 147.989 10.6535 147.989C9.71411 147.989 8.93458 147.23 8.93458 146.27C8.93458 145.31 9.71411 144.551 10.6535 144.551Z" fill="white"/>
<path d="M10.6535 133.434C11.593 133.434 12.3725 134.194 12.3725 135.154C12.3725 136.094 11.613 136.873 10.6535 136.873C9.71411 136.873 8.93458 136.114 8.93458 135.154C8.93458 134.194 9.71411 133.434 10.6535 133.434Z" fill="white"/>
<path d="M10.6535 122.318C11.593 122.318 12.3725 123.078 12.3725 124.038C12.3725 124.977 11.613 125.757 10.6535 125.757C9.71411 125.757 8.93458 124.997 8.93458 124.038C8.93458 123.078 9.71411 122.318 10.6535 122.318Z" fill="white"/>
<path d="M10.6535 111.202C11.593 111.202 12.3725 111.962 12.3725 112.921C12.3725 113.881 11.613 114.641 10.6535 114.641C9.71411 114.641 8.93458 113.881 8.93458 112.921C8.93458 111.962 9.71411 111.202 10.6535 111.202Z" fill="white"/>
<path d="M10.6535 100.066C11.593 100.066 12.3725 100.826 12.3725 101.785C12.3725 102.725 11.613 103.505 10.6535 103.505C9.71411 103.505 8.93458 102.745 8.93458 101.785C8.93458 100.846 9.71411 100.066 10.6535 100.066Z" fill="white"/>
<path d="M10.6535 88.9496C11.593 88.9496 12.3725 89.7094 12.3725 90.669C12.3725 91.6287 11.613 92.3885 10.6535 92.3885C9.71411 92.3885 8.93458 91.6287 8.93458 90.669C8.93458 89.7094 9.71411 88.9496 10.6535 88.9496Z" fill="white"/>
<path d="M10.6535 77.8334C11.593 77.8334 12.3725 78.5932 12.3725 79.5528C12.3725 80.4925 11.613 81.2722 10.6535 81.2722C9.71411 81.2722 8.93458 80.5125 8.93458 79.5528C8.93458 78.5932 9.71411 77.8334 10.6535 77.8334Z" fill="white"/>
<path d="M10.6535 66.7172C11.593 66.7172 12.3725 67.477 12.3725 68.4366C12.3725 69.3763 11.613 70.156 10.6535 70.156C9.71411 70.156 8.93458 69.3963 8.93458 68.4366C8.93458 67.477 9.71411 66.7172 10.6535 66.7172Z" fill="white"/>
<path d="M10.6535 55.601C11.593 55.601 12.3725 56.3608 12.3725 57.3204C12.3725 58.2601 11.613 59.0398 10.6535 59.0398C9.71411 59.0398 8.93458 58.2801 8.93458 57.3204C8.93458 56.3608 9.71411 55.601 10.6535 55.601Z" fill="white"/>
<path d="M10.6535 44.4848C11.593 44.4848 12.3725 45.2446 12.3725 46.2042C12.3725 47.1439 11.613 47.9236 10.6535 47.9236C9.71411 47.9236 8.93458 47.1639 8.93458 46.2042C8.93458 45.2446 9.71411 44.4848 10.6535 44.4848Z" fill="white"/>
<path d="M10.6535 33.3486C11.593 33.3486 12.3725 34.1084 12.3725 35.068C12.3725 36.0077 11.613 36.7874 10.6535 36.7874C9.71411 36.7874 8.93458 36.0277 8.93458 35.068C8.93458 34.1283 9.71411 33.3486 10.6535 33.3486Z" fill="white"/>
<path d="M10.6535 22.2324C11.593 22.2324 12.3725 22.9921 12.3725 23.9518C12.3725 24.8915 11.613 25.6712 10.6535 25.6712C9.71411 25.6712 8.93458 24.9115 8.93458 23.9518C8.93458 23.0121 9.71411 22.2324 10.6535 22.2324Z" fill="white"/>
<path d="M10.6535 11.1162C11.593 11.1162 12.3725 11.8759 12.3725 12.8356C12.3725 13.7953 11.613 14.555 10.6535 14.555C9.71411 14.555 8.93458 13.7953 8.93458 12.8356C8.93458 11.8759 9.71411 11.1162 10.6535 11.1162Z" fill="white"/>
<path d="M10.6535 0C11.593 0 12.3725 0.759741 12.3725 1.71941C12.3725 2.65909 11.613 3.43883 10.6535 3.43883C9.71411 3.43883 8.93458 2.67909 8.93458 1.71941C8.93458 0.759741 9.71411 0 10.6535 0Z" fill="white"/>
<path d="M20.8055 147.483C21.4768 146.812 21.4768 145.723 20.8055 145.052C20.1342 144.38 19.0459 144.38 18.3746 145.052C17.7033 145.723 17.7033 146.812 18.3746 147.483C19.0459 148.155 20.1342 148.155 20.8055 147.483Z" fill="white"/>
<path d="M19.5881 133.434C20.5276 133.434 21.3071 134.194 21.3071 135.154C21.3071 136.094 20.5475 136.873 19.5881 136.873C18.6287 136.873 17.8692 136.114 17.8692 135.154C17.8692 134.194 18.6487 133.434 19.5881 133.434Z" fill="white"/>
<path d="M21.2467 124.426C21.4649 123.502 20.8928 122.575 19.9688 122.357C19.0449 122.139 18.1191 122.711 17.9009 123.635C17.6828 124.56 18.2549 125.486 19.1788 125.704C20.1027 125.922 21.0286 125.35 21.2467 124.426Z" fill="white"/>
<path d="M21.2502 113.307C21.4684 112.383 20.8963 111.456 19.9724 111.238C19.0485 111.02 18.1226 111.592 17.9044 112.516C17.6863 113.441 18.2584 114.367 19.1823 114.585C20.1062 114.803 21.0321 114.231 21.2502 113.307Z" fill="white"/>
<path d="M19.5881 100.066C20.5276 100.066 21.3071 100.826 21.3071 101.785C21.3071 102.725 20.5475 103.505 19.5881 103.505C18.6287 103.505 17.8692 102.745 17.8692 101.785C17.8692 100.846 18.6487 100.066 19.5881 100.066Z" fill="white"/>
<path d="M20.8031 91.8838C21.4744 91.2123 21.4744 90.1236 20.8031 89.4522C20.1318 88.7807 19.0434 88.7807 18.3721 89.4522C17.7009 90.1236 17.7009 91.2123 18.3721 91.8838C19.0434 92.5552 20.1318 92.5552 20.8031 91.8838Z" fill="white"/>
<path d="M19.5881 77.8334C20.5276 77.8334 21.3071 78.5932 21.3071 79.5528C21.3071 80.4925 20.5475 81.2722 19.5881 81.2722C18.6287 81.2722 17.8692 80.5125 17.8692 79.5528C17.8692 78.5932 18.6487 77.8334 19.5881 77.8334Z" fill="white"/>
<path d="M20.8078 69.6496C21.4791 68.9782 21.4791 67.8895 20.8078 67.218C20.1365 66.5466 19.0482 66.5466 18.3769 67.218C17.7056 67.8895 17.7056 68.9782 18.3769 69.6496C19.0482 70.3211 20.1365 70.3211 20.8078 69.6496Z" fill="white"/>
<path d="M19.5881 55.601C20.5276 55.601 21.3071 56.3608 21.3071 57.3204C21.3071 58.2601 20.5475 59.0398 19.5881 59.0398C18.6287 59.0398 17.8692 58.2801 17.8692 57.3204C17.8692 56.3608 18.6487 55.601 19.5881 55.601Z" fill="white"/>
<path d="M21.2529 46.5868C21.4711 45.6627 20.899 44.7366 19.9751 44.5184C19.0512 44.3001 18.1253 44.8724 17.9072 45.7966C17.689 46.7207 18.2611 47.6468 19.185 47.865C20.1089 48.0832 21.0348 47.511 21.2529 46.5868Z" fill="white"/>
<path d="M21.2566 35.4676C21.4748 34.5434 20.9027 33.6174 19.9788 33.3992C19.0548 33.1809 18.129 33.7532 17.9109 34.6774C17.6927 35.6015 18.2648 36.5276 19.1887 36.7458C20.1126 36.964 21.0385 36.3918 21.2566 35.4676Z" fill="white"/>
<path d="M21.2605 24.3482C21.4787 23.4241 20.9066 22.498 19.9827 22.2798C19.0587 22.0616 18.1329 22.6339 17.9147 23.558C17.6966 24.4822 18.2687 25.4082 19.1926 25.6265C20.1165 25.8447 21.0424 25.2724 21.2605 24.3482Z" fill="white"/>
<path d="M21.264 13.2292C21.4822 12.305 20.9101 11.379 19.9861 11.1607C19.0622 10.9425 18.1364 11.5148 17.9182 12.4389C17.7001 13.3631 18.2722 14.2892 19.1961 14.5074C20.12 14.7256 21.0459 14.1533 21.264 13.2292Z" fill="white"/>
<path d="M19.5881 0C20.5276 0 21.3071 0.759741 21.3071 1.71941C21.3071 2.65909 20.5475 3.43883 19.5881 3.43883C18.6287 3.43883 17.8692 2.67909 17.8692 1.71941C17.8692 0.759741 18.6487 0 19.5881 0Z" fill="white"/>
<path d="M30.1959 146.672C30.4141 145.748 29.8419 144.822 28.918 144.604C27.9941 144.386 27.0683 144.958 26.8501 145.882C26.632 146.806 27.2041 147.732 28.128 147.95C29.0519 148.169 29.9777 147.596 30.1959 146.672Z" fill="white"/>
<path d="M28.5227 133.434C29.4621 133.434 30.2417 134.194 30.2417 135.154C30.2417 136.094 29.4821 136.873 28.5227 136.873C27.5833 136.873 26.8038 136.114 26.8038 135.154C26.8038 134.194 27.5833 133.434 28.5227 133.434Z" fill="white"/>
<path d="M29.7315 125.237C30.4028 124.565 30.4028 123.477 29.7315 122.805C29.0602 122.134 27.9718 122.134 27.3005 122.805C26.6292 123.477 26.6292 124.565 27.3005 125.237C27.9718 125.908 29.0602 125.908 29.7315 125.237Z" fill="white"/>
<path d="M29.7337 114.12C30.405 113.448 30.405 112.36 29.7337 111.688C29.0624 111.017 27.974 111.017 27.3027 111.688C26.6315 112.36 26.6315 113.448 27.3028 114.12C27.974 114.791 29.0624 114.791 29.7337 114.12Z" fill="white"/>
<path d="M28.5227 100.066C29.4621 100.066 30.2417 100.826 30.2417 101.785C30.2417 102.725 29.4821 103.505 28.5227 103.505C27.5833 103.505 26.8038 102.745 26.8038 101.785C26.8038 100.846 27.5833 100.066 28.5227 100.066Z" fill="white"/>
<path d="M30.1948 91.0716C30.4129 90.1474 29.8408 89.2214 28.9169 89.0032C27.993 88.7849 27.0671 89.3572 26.849 90.2814C26.6308 91.2055 27.2029 92.1316 28.1269 92.3498C29.0508 92.568 29.9766 91.9958 30.1948 91.0716Z" fill="white"/>
<path d="M28.5227 77.8334C29.4621 77.8334 30.2417 78.5932 30.2417 79.5528C30.2417 80.4925 29.4821 81.2722 28.5227 81.2722C27.5833 81.2722 26.8038 80.5125 26.8038 79.5528C26.8038 78.5932 27.5833 77.8334 28.5227 77.8334Z" fill="white"/>
<path d="M30.2022 68.8331C30.4203 67.909 29.8482 66.9829 28.9243 66.7647C28.0004 66.5465 27.0745 67.1188 26.8564 68.0429C26.6382 68.9671 27.2103 69.8931 28.1343 70.1114C29.0582 70.3296 29.984 69.7573 30.2022 68.8331Z" fill="white"/>
<path d="M28.5227 55.601C29.4621 55.601 30.2417 56.3608 30.2417 57.3204C30.2417 58.2601 29.4821 59.0398 28.5227 59.0398C27.5833 59.0398 26.8038 58.2801 26.8038 57.3204C26.8038 56.3608 27.5833 55.601 28.5227 55.601Z" fill="white"/>
<path d="M29.7338 47.4033C30.4051 46.7319 30.4051 45.6432 29.7338 44.9717C29.0625 44.3003 27.9741 44.3003 27.3028 44.9717C26.6315 45.6432 26.6315 46.7319 27.3028 47.4033C27.9741 48.0748 29.0625 48.0748 29.7338 47.4033Z" fill="white"/>
<path d="M29.7361 36.2863C30.4074 35.6148 30.4074 34.5261 29.7361 33.8547C29.0648 33.1832 27.9765 33.1832 27.3052 33.8547C26.6339 34.5261 26.6339 35.6148 27.3052 36.2863C27.9765 36.9577 29.0648 36.9577 29.7361 36.2863Z" fill="white"/>
<path d="M29.7386 25.1691C30.4099 24.4977 30.4099 23.409 29.7386 22.7375C29.0673 22.0661 27.979 22.0661 27.3077 22.7375C26.6364 23.409 26.6364 24.4977 27.3077 25.1691C27.979 25.8406 29.0673 25.8406 29.7386 25.1691Z" fill="white"/>
<path d="M29.7409 14.0521C30.4122 13.3806 30.4122 12.292 29.7409 11.6205C29.0696 10.949 27.9812 10.949 27.3099 11.6205C26.6386 12.292 26.6386 13.3806 27.3099 14.0521C27.9812 14.7236 29.0696 14.7236 29.7409 14.0521Z" fill="white"/>
<path d="M28.5227 0C29.4621 0 30.2417 0.759741 30.2417 1.71941C30.2417 2.65909 29.4821 3.43883 28.5227 3.43883C27.5833 3.43883 26.8038 2.67909 26.8038 1.71941C26.8038 0.759741 27.5833 0 28.5227 0Z" fill="white"/>
<path d="M39.1331 146.675C39.3512 145.751 38.7791 144.825 37.8552 144.607C36.9313 144.389 36.0054 144.961 35.7873 145.885C35.5691 146.809 36.1412 147.735 37.0651 147.954C37.9891 148.172 38.9149 147.6 39.1331 146.675Z" fill="white"/>
<path d="M37.4573 133.434C38.3967 133.434 39.1763 134.194 39.1763 135.154C39.1763 136.094 38.4167 136.873 37.4573 136.873C36.5179 136.873 35.7383 136.114 35.7383 135.154C35.7583 134.194 36.5179 133.434 37.4573 133.434Z" fill="white"/>
<path d="M38.6668 125.239C39.3381 124.568 39.3381 123.479 38.6668 122.807C37.9955 122.136 36.9071 122.136 36.2359 122.807C35.5646 123.479 35.5646 124.568 36.2359 125.239C36.9071 125.91 37.9955 125.91 38.6668 125.239Z" fill="white"/>
<path d="M38.669 114.122C39.3403 113.45 39.3403 112.362 38.669 111.69C37.9978 111.019 36.9094 111.019 36.2381 111.69C35.5668 112.362 35.5668 113.451 36.2381 114.122C36.9094 114.793 37.9977 114.793 38.669 114.122Z" fill="white"/>
<path d="M37.4573 100.066C38.3967 100.066 39.1763 100.826 39.1763 101.785C39.1763 102.725 38.4167 103.505 37.4573 103.505C36.5179 103.505 35.7383 102.745 35.7383 101.785C35.7583 100.846 36.5179 100.066 37.4573 100.066Z" fill="white"/>
<path d="M39.1319 91.0748C39.3501 90.1506 38.778 89.2245 37.8541 89.0063C36.9301 88.7881 36.0043 89.3604 35.7861 90.2845C35.568 91.2087 36.1401 92.1348 37.064 92.353C37.9879 92.5712 38.9138 91.9989 39.1319 91.0748Z" fill="white"/>
<path d="M37.4573 77.8334C38.3967 77.8334 39.1763 78.5932 39.1763 79.5528C39.1763 80.4925 38.4167 81.2722 37.4573 81.2722C36.5179 81.2722 35.7383 80.5125 35.7383 79.5528C35.7583 78.5932 36.5179 77.8334 37.4573 77.8334Z" fill="white"/>
<path d="M39.1393 68.8363C39.3575 67.9121 38.7854 66.986 37.8614 66.7678C36.9375 66.5496 36.0117 67.1219 35.7935 68.046C35.5754 68.9702 36.1475 69.8963 37.0714 70.1145C37.9953 70.3327 38.9212 69.7604 39.1393 68.8363Z" fill="white"/>
<path d="M37.4573 55.601C38.3967 55.601 39.1763 56.3608 39.1763 57.3204C39.1763 58.2601 38.4167 59.0398 37.4573 59.0398C36.5179 59.0398 35.7383 58.2801 35.7383 57.3204C35.7583 56.3608 36.5179 55.601 37.4573 55.601Z" fill="white"/>
<path d="M38.6691 47.4054C39.3404 46.7339 39.3404 45.6452 38.6691 44.9738C37.9978 44.3023 36.9094 44.3023 36.2382 44.9738C35.5669 45.6452 35.5669 46.7339 36.2382 47.4054C36.9094 48.0768 37.9978 48.0768 38.6691 47.4054Z" fill="white"/>
<path d="M38.6715 36.2883C39.3428 35.6168 39.3428 34.5282 38.6715 33.8567C38.0002 33.1852 36.9118 33.1852 36.2405 33.8567C35.5692 34.5282 35.5692 35.6168 36.2405 36.2883C36.9118 36.9597 38.0002 36.9598 38.6715 36.2883Z" fill="white"/>
<path d="M38.674 25.1711C39.3453 24.4997 39.3453 23.411 38.674 22.7396C38.0027 22.0681 36.9143 22.0681 36.243 22.7396C35.5717 23.411 35.5717 24.4997 36.243 25.1711C36.9143 25.8426 38.0027 25.8426 38.674 25.1711Z" fill="white"/>
<path d="M38.6762 14.0541C39.3475 13.3827 39.3475 12.294 38.6762 11.6225C38.0049 10.9511 36.9165 10.9511 36.2453 11.6225C35.574 12.294 35.574 13.3827 36.2453 14.0541C36.9165 14.7256 38.0049 14.7256 38.6762 14.0541Z" fill="white"/>
<path d="M37.4573 0C38.3967 0 39.1763 0.759741 39.1763 1.71941C39.1763 2.65909 38.4167 3.43883 37.4573 3.43883C36.5179 3.43883 35.7383 2.67909 35.7383 1.71941C35.7583 0.759741 36.5179 0 37.4573 0Z" fill="white"/>
<path d="M47.6116 147.489C48.2829 146.818 48.2829 145.729 47.6116 145.058C46.9403 144.386 45.8519 144.386 45.1807 145.058C44.5094 145.729 44.5094 146.818 45.1807 147.489C45.8519 148.161 46.9403 148.161 47.6116 147.489Z" fill="white"/>
<path d="M46.3919 133.434C47.3313 133.434 48.1108 134.194 48.1108 135.154C48.1108 136.094 47.3513 136.873 46.3919 136.873C45.4525 136.873 44.6729 136.114 44.6729 135.154C44.6929 134.194 45.4525 133.434 46.3919 133.434Z" fill="white"/>
<path d="M48.0561 124.426C48.2734 123.502 47.7004 122.576 46.7763 122.359C45.8522 122.142 44.9269 122.715 44.7096 123.639C44.4923 124.563 45.0653 125.489 45.9894 125.706C46.9135 125.924 47.8388 125.351 48.0561 124.426Z" fill="white"/>
<path d="M48.0596 113.308C48.2769 112.384 47.7039 111.458 46.7798 111.241C45.8557 111.023 44.9304 111.596 44.7131 112.521C44.4958 113.445 45.0688 114.371 45.9929 114.588C46.917 114.805 47.8423 114.232 48.0596 113.308Z" fill="white"/>
<path d="M46.3919 100.066C47.3313 100.066 48.1108 100.826 48.1108 101.785C48.1108 102.725 47.3513 103.505 46.3919 103.505C45.4525 103.505 44.6729 102.745 44.6729 101.785C44.6929 100.846 45.4525 100.066 46.3919 100.066Z" fill="white"/>
<path d="M47.6092 91.89C48.2805 91.2185 48.2805 90.1298 47.6092 89.4584C46.9379 88.7869 45.8495 88.7869 45.1782 89.4584C44.5069 90.1298 44.5069 91.2185 45.1782 91.89C45.8495 92.5614 46.9379 92.5614 47.6092 91.89Z" fill="white"/>
<path d="M46.3919 77.8334C47.3313 77.8334 48.1108 78.5932 48.1108 79.5528C48.1108 80.4925 47.3513 81.2722 46.3919 81.2722C45.4525 81.2722 44.6729 80.5125 44.6729 79.5528C44.6929 78.5932 45.4525 77.8334 46.3919 77.8334Z" fill="white"/>
<path d="M47.6139 69.6558C48.2852 68.9843 48.2852 67.8957 47.6139 67.2242C46.9426 66.5527 45.8542 66.5528 45.183 67.2242C44.5117 67.8957 44.5117 68.9843 45.1829 69.6558C45.8542 70.3273 46.9426 70.3273 47.6139 69.6558Z" fill="white"/>
<path d="M46.3919 55.601C47.3313 55.601 48.1108 56.3608 48.1108 57.3204C48.1108 58.2601 47.3513 59.0398 46.3919 59.0398C45.4525 59.0398 44.6729 58.2801 44.6729 57.3204C44.6929 56.3608 45.4525 55.601 46.3919 55.601Z" fill="white"/>
<path d="M48.0622 46.592C48.2795 45.6676 47.7065 44.7421 46.7824 44.5247C45.8583 44.3074 44.933 44.8805 44.7157 45.8048C44.4984 46.7292 45.0714 47.6547 45.9955 47.8721C46.9196 48.0895 47.8448 47.5163 48.0622 46.592Z" fill="white"/>
<path d="M48.0658 35.4735C48.2831 34.5491 47.7102 33.6236 46.7861 33.4062C45.862 33.1888 44.9367 33.762 44.7194 34.6863C44.5021 35.6107 45.075 36.5362 45.9991 36.7536C46.9232 36.9709 47.8485 36.3978 48.0658 35.4735Z" fill="white"/>
<path d="M48.0697 24.3547C48.287 23.4304 47.714 22.5049 46.7899 22.2875C45.8658 22.0701 44.9405 22.6433 44.7232 23.5676C44.5059 24.4919 45.0789 25.4175 46.003 25.6348C46.9271 25.8522 47.8524 25.2791 48.0697 24.3547Z" fill="white"/>
<path d="M48.0732 13.2364C48.2905 12.312 47.7175 11.3865 46.7934 11.1691C45.8693 10.9517 44.944 11.5249 44.7267 12.4492C44.5094 13.3736 45.0824 14.2991 46.0065 14.5165C46.9306 14.7338 47.8559 14.1607 48.0732 13.2364Z" fill="white"/>
<path d="M46.3919 0C47.3313 0 48.1108 0.759741 48.1108 1.71941C48.1108 2.65909 47.3513 3.43883 46.3919 3.43883C45.4525 3.43883 44.6729 2.67909 44.6729 1.71941C44.6929 0.759741 45.4525 0 46.3919 0Z" fill="white"/>
<path d="M55.3465 144.551C56.2859 144.551 57.0654 145.31 57.0654 146.27C57.0654 147.21 56.3059 147.989 55.3465 147.989C54.407 147.989 53.6275 147.23 53.6275 146.27C53.6275 145.31 54.387 144.551 55.3465 144.551Z" fill="white"/>
<path d="M55.3465 133.434C56.2859 133.434 57.0654 134.194 57.0654 135.154C57.0654 136.094 56.3059 136.873 55.3465 136.873C54.407 136.873 53.6275 136.114 53.6275 135.154C53.6275 134.194 54.387 133.434 55.3465 133.434Z" fill="white"/>
<path d="M55.3465 122.318C56.2859 122.318 57.0654 123.078 57.0654 124.038C57.0654 124.977 56.3059 125.757 55.3465 125.757C54.407 125.757 53.6275 124.997 53.6275 124.038C53.6275 123.078 54.387 122.318 55.3465 122.318Z" fill="white"/>
<path d="M55.3465 111.202C56.2859 111.202 57.0654 111.962 57.0654 112.921C57.0654 113.881 56.3059 114.641 55.3465 114.641C54.407 114.641 53.6275 113.881 53.6275 112.921C53.6275 111.962 54.387 111.202 55.3465 111.202Z" fill="white"/>
<path d="M55.3465 100.066C56.2859 100.066 57.0654 100.826 57.0654 101.785C57.0654 102.725 56.3059 103.505 55.3465 103.505C54.407 103.505 53.6275 102.745 53.6275 101.785C53.6275 100.846 54.387 100.066 55.3465 100.066Z" fill="white"/>
<path d="M55.3465 88.9496C56.2859 88.9496 57.0654 89.7094 57.0654 90.669C57.0654 91.6287 56.3059 92.3885 55.3465 92.3885C54.407 92.3885 53.6275 91.6287 53.6275 90.669C53.6275 89.7094 54.387 88.9496 55.3465 88.9496Z" fill="white"/>
<path d="M55.3465 77.8334C56.2859 77.8334 57.0654 78.5932 57.0654 79.5528C57.0654 80.4925 56.3059 81.2722 55.3465 81.2722C54.407 81.2722 53.6275 80.5125 53.6275 79.5528C53.6275 78.5932 54.387 77.8334 55.3465 77.8334Z" fill="white"/>
<path d="M55.3465 66.7172C56.2859 66.7172 57.0654 67.477 57.0654 68.4366C57.0654 69.3763 56.3059 70.156 55.3465 70.156C54.407 70.156 53.6275 69.3963 53.6275 68.4366C53.6275 67.477 54.387 66.7172 55.3465 66.7172Z" fill="white"/>
<path d="M55.3465 55.601C56.2859 55.601 57.0654 56.3608 57.0654 57.3204C57.0654 58.2601 56.3059 59.0398 55.3465 59.0398C54.407 59.0398 53.6275 58.2801 53.6275 57.3204C53.6275 56.3608 54.387 55.601 55.3465 55.601Z" fill="white"/>
<path d="M55.3465 44.4848C56.2859 44.4848 57.0654 45.2446 57.0654 46.2042C57.0654 47.1439 56.3059 47.9236 55.3465 47.9236C54.407 47.9236 53.6275 47.1639 53.6275 46.2042C53.6275 45.2446 54.387 44.4848 55.3465 44.4848Z" fill="white"/>
<path d="M55.3465 33.3486C56.2859 33.3486 57.0654 34.1084 57.0654 35.068C57.0654 36.0077 56.3059 36.7874 55.3465 36.7874C54.407 36.7874 53.6275 36.0277 53.6275 35.068C53.6275 34.1283 54.387 33.3486 55.3465 33.3486Z" fill="white"/>
<path d="M55.3465 22.2324C56.2859 22.2324 57.0654 22.9921 57.0654 23.9518C57.0654 24.8915 56.3059 25.6712 55.3465 25.6712C54.407 25.6712 53.6275 24.9115 53.6275 23.9518C53.6275 23.0121 54.387 22.2324 55.3465 22.2324Z" fill="white"/>
<path d="M55.3465 11.1162C56.2859 11.1162 57.0654 11.8759 57.0654 12.8356C57.0654 13.7953 56.3059 14.555 55.3465 14.555C54.407 14.555 53.6275 13.7953 53.6275 12.8356C53.6275 11.8759 54.387 11.1162 55.3465 11.1162Z" fill="white"/>
<path d="M55.3465 0C56.2859 0 57.0654 0.759741 57.0654 1.71941C57.0654 2.65909 56.3059 3.43883 55.3465 3.43883C54.407 3.43883 53.6275 2.67909 53.6275 1.71941C53.6275 0.759741 54.387 0 55.3465 0Z" fill="white"/>
<path d="M64.281 144.551C65.2205 144.551 66 145.31 66 146.27C66 147.21 65.2405 147.989 64.281 147.989C63.3416 147.989 62.5621 147.23 62.5621 146.27C62.5621 145.31 63.3216 144.551 64.281 144.551Z" fill="white"/>
<path d="M64.281 133.434C65.2205 133.434 66 134.194 66 135.154C66 136.094 65.2405 136.873 64.281 136.873C63.3416 136.873 62.5621 136.114 62.5621 135.154C62.5621 134.194 63.3216 133.434 64.281 133.434Z" fill="white"/>
<path d="M64.281 122.318C65.2205 122.318 66 123.078 66 124.038C66 124.977 65.2405 125.757 64.281 125.757C63.3416 125.757 62.5621 124.997 62.5621 124.038C62.5621 123.078 63.3216 122.318 64.281 122.318Z" fill="white"/>
<path d="M64.281 111.202C65.2205 111.202 66 111.962 66 112.921C66 113.881 65.2405 114.641 64.281 114.641C63.3416 114.641 62.5621 113.881 62.5621 112.921C62.5621 111.962 63.3216 111.202 64.281 111.202Z" fill="white"/>
<path d="M64.281 100.066C65.2205 100.066 66 100.826 66 101.785C66 102.725 65.2405 103.505 64.281 103.505C63.3416 103.505 62.5621 102.745 62.5621 101.785C62.5621 100.846 63.3216 100.066 64.281 100.066Z" fill="white"/>
<path d="M64.281 88.9496C65.2205 88.9496 66 89.7094 66 90.669C66 91.6287 65.2405 92.3885 64.281 92.3885C63.3416 92.3885 62.5621 91.6287 62.5621 90.669C62.5621 89.7094 63.3216 88.9496 64.281 88.9496Z" fill="white"/>
<path d="M64.281 77.8334C65.2205 77.8334 66 78.5932 66 79.5528C66 80.4925 65.2405 81.2722 64.281 81.2722C63.3416 81.2722 62.5621 80.5125 62.5621 79.5528C62.5621 78.5932 63.3216 77.8334 64.281 77.8334Z" fill="white"/>
<path d="M64.281 66.7172C65.2205 66.7172 66 67.477 66 68.4366C66 69.3763 65.2405 70.156 64.281 70.156C63.3416 70.156 62.5621 69.3963 62.5621 68.4366C62.5621 67.477 63.3216 66.7172 64.281 66.7172Z" fill="white"/>
<path d="M64.281 55.601C65.2205 55.601 66 56.3608 66 57.3204C66 58.2601 65.2405 59.0398 64.281 59.0398C63.3416 59.0398 62.5621 58.2801 62.5621 57.3204C62.5621 56.3608 63.3216 55.601 64.281 55.601Z" fill="white"/>
<path d="M64.281 44.4848C65.2205 44.4848 66 45.2446 66 46.2042C66 47.1439 65.2405 47.9236 64.281 47.9236C63.3416 47.9236 62.5621 47.1639 62.5621 46.2042C62.5621 45.2446 63.3216 44.4848 64.281 44.4848Z" fill="white"/>
<path d="M64.281 33.3486C65.2205 33.3486 66 34.1084 66 35.068C66 36.0077 65.2405 36.7874 64.281 36.7874C63.3416 36.7874 62.5621 36.0277 62.5621 35.068C62.5621 34.1283 63.3216 33.3486 64.281 33.3486Z" fill="white"/>
<path d="M64.281 22.2324C65.2205 22.2324 66 22.9921 66 23.9518C66 24.8915 65.2405 25.6712 64.281 25.6712C63.3416 25.6712 62.5621 24.9115 62.5621 23.9518C62.5621 23.0121 63.3216 22.2324 64.281 22.2324Z" fill="white"/>
<path d="M64.281 11.1162C65.2205 11.1162 66 11.8759 66 12.8356C66 13.7953 65.2405 14.555 64.281 14.555C63.3416 14.555 62.5621 13.7953 62.5621 12.8356C62.5621 11.8759 63.3216 11.1162 64.281 11.1162Z" fill="white"/>
<path d="M64.281 0C65.2205 0 66 0.759741 66 1.71941C66 2.65909 65.2405 3.43883 64.281 3.43883C63.3416 3.43883 62.5621 2.67909 62.5621 1.71941C62.5621 0.759741 63.3216 0 64.281 0Z" fill="white"/>
</svg>
