<svg width="18" height="21" viewBox="0 0 18 21" fill="none" xmlns="http://www.w3.org/2000/svg">
<path d="M10.5023 10.3562C10.3011 10.3562 10.1082 10.2311 10.0343 10.0269C9.93583 9.76436 10.0672 9.47263 10.3258 9.37261C11.7993 8.80582 12.7516 7.41385 12.7516 5.82183C12.7516 3.72137 11.0687 2.01266 8.99997 2.01266C6.93123 2.01266 5.24832 3.72137 5.24832 5.82183C5.24832 7.40968 6.2006 8.80582 7.67417 9.37261C7.93276 9.47263 8.06411 9.76436 7.9656 10.0269C7.86709 10.2895 7.57976 10.4228 7.32117 10.3228C5.48228 9.61433 4.24678 7.8056 4.24678 5.82183C4.24678 3.16291 6.3771 0.999939 8.99587 0.999939C11.6146 0.999939 13.7532 3.16291 13.7532 5.82183C13.7532 7.8056 12.5177 9.61433 10.6788 10.3228C10.6213 10.3437 10.5638 10.3562 10.5023 10.3562Z" fill="white"/>
<path d="M16.5033 19.9999C16.2283 19.9999 16.0025 19.7749 16.0025 19.4915C16.0025 15.574 12.8625 12.3816 9.00408 12.3816C7.35811 12.3816 5.7614 12.9734 4.50127 14.0445C2.91277 15.3989 2.00154 17.3827 2.00154 19.4873C2.00154 19.7666 1.77578 19.9958 1.50077 19.9958C1.22576 19.9958 1 19.7707 1 19.4873C1 17.0826 2.04258 14.8155 3.85684 13.2651C5.29347 12.0399 7.12004 11.3647 8.99997 11.3647C13.4125 11.3647 16.9999 15.0072 16.9999 19.4873C17.004 19.7707 16.7824 19.9999 16.5033 19.9999Z" fill="white"/>
<path d="M10.5023 10.3562C10.3011 10.3562 10.1082 10.2311 10.0343 10.0269C9.93583 9.76436 10.0672 9.47263 10.3258 9.37261C11.7993 8.80582 12.7516 7.41385 12.7516 5.82183C12.7516 3.72137 11.0687 2.01266 8.99997 2.01266C6.93123 2.01266 5.24832 3.72137 5.24832 5.82183C5.24832 7.40968 6.2006 8.80582 7.67417 9.37261C7.93276 9.47263 8.06411 9.76436 7.9656 10.0269C7.86709 10.2895 7.57976 10.4228 7.32117 10.3228C5.48228 9.61433 4.24678 7.8056 4.24678 5.82183C4.24678 3.16291 6.3771 0.999939 8.99587 0.999939C11.6146 0.999939 13.7532 3.16291 13.7532 5.82183C13.7532 7.8056 12.5177 9.61433 10.6788 10.3228C10.6213 10.3437 10.5638 10.3562 10.5023 10.3562Z" stroke="white"/>
<path d="M16.5033 19.9999C16.2283 19.9999 16.0025 19.7749 16.0025 19.4915C16.0025 15.574 12.8625 12.3816 9.00408 12.3816C7.35811 12.3816 5.7614 12.9734 4.50127 14.0445C2.91277 15.3989 2.00154 17.3827 2.00154 19.4873C2.00154 19.7666 1.77578 19.9958 1.50077 19.9958C1.22576 19.9958 1 19.7707 1 19.4873C1 17.0826 2.04258 14.8155 3.85684 13.2651C5.29347 12.0399 7.12004 11.3647 8.99997 11.3647C13.4125 11.3647 16.9999 15.0072 16.9999 19.4873C17.004 19.7707 16.7824 19.9999 16.5033 19.9999Z" stroke="white"/>
</svg>
