<svg width="30" height="30" viewBox="0 0 30 30" fill="none" xmlns="http://www.w3.org/2000/svg">
<path d="M19.6048 0H10.3952C1.99012 0 0 1.99012 0 10.3952V19.6048C0 28.0099 1.99012 30 10.3952 30H19.6048C28.0099 30 30 28.0099 30 19.6048V10.3952C30 2.01129 28.0099 0 19.6048 0ZM24.2202 21.4044H22.0395C21.2138 21.4044 20.9598 20.7481 19.4778 19.2449C18.1863 17.9958 17.6147 17.8264 17.2971 17.8264C16.8525 17.8264 16.7255 17.9534 16.7255 18.5674V20.5363C16.7255 21.0656 16.5561 21.3832 15.1588 21.3832C12.8511 21.3832 10.2893 19.9859 8.48977 17.3818C5.77982 13.5709 5.03881 10.7128 5.03881 10.12C5.03881 9.8024 5.16584 9.506 5.77982 9.506H7.96048C8.51094 9.506 8.72265 9.76006 8.93437 10.3529C10.0141 13.5074 11.8349 16.2385 12.5759 16.2385C12.8511 16.2385 12.9781 16.1115 12.9781 15.4128V12.1736C12.8934 10.6916 12.1101 10.5646 12.1101 10.0353C12.1101 9.78123 12.3218 9.52717 12.6606 9.52717H16.0903C16.5561 9.52717 16.7255 9.78123 16.7255 10.3317V14.6718C16.7255 15.1376 16.9372 15.307 17.0642 15.307C17.3394 15.307 17.5723 15.1376 18.0805 14.6295C19.6471 12.8723 20.7692 10.1623 20.7692 10.1623C20.9174 9.84474 21.1715 9.54834 21.7219 9.54834H23.9026C24.5589 9.54834 24.7071 9.88709 24.5589 10.3529C24.2837 11.6231 21.6161 15.3917 21.6161 15.3917C21.3832 15.7728 21.2985 15.9421 21.6161 16.3656C21.849 16.6831 22.6112 17.3394 23.1193 17.9323C24.0508 18.9908 24.7706 19.88 24.9612 20.494C25.1729 21.108 24.8553 21.4044 24.2202 21.4044Z" fill="white"/>
</svg>
